<svg width="320" height="320" viewBox="0 0 320 320" fill="none" xmlns="http://www.w3.org/2000/svg">
<circle cx="160" cy="160" r="155" fill="#2589F4" stroke="#2589F4" stroke-width="10"/>
<path fill-rule="evenodd" clip-rule="evenodd" d="M60.2118 271.995L66.4 194.2C71 197.6 76.5 201.3 82.9 205.3C89.3 209.1 98 212.6 109 215.8C120 219 134.5 221.5 152.5 223.3C153.5 223.5 154.4 223.6 155.2 223.6H157.9C160.1 223.6 161.7 223.3 162.7 222.7C163.9 222.1 164.5 220.8 164.5 218.8C164.5 216.6 163.5 215.2 161.5 214.6C159.7 214 156.8 213.4 152.8 212.8C142 211.6 131.2 209.9 120.4 207.7C109.8 205.5 100.1 202.1 91.3 197.5C82.5 192.9 75.4 186.5 70 178.3C64.8 170.1 62.2 159.4 62.2 146.2C62.2 127.4 66.6 112.5 75.4 101.5C84.4 90.3 96.5 82.3 111.7 77.5C126.9 72.5 143.9 70 162.7 70C178.5 70 195 71.5 212.2 74.5C229.4 77.3 246.4 81.2 263.2 86.2L254.2 177.4C243.6 171 232.3 166.3 220.3 163.3C208.3 160.1 193.9 157.9 177.1 156.7C175.7 156.5 174.3 156.4 172.9 156.4C171.7 156.2 170.5 156.1 169.3 156.1C165.1 156.1 163 157.8 163 161.2C163 163.2 164.1 164.6 166.3 165.4C168.7 166 171.9 166.5 175.9 166.9C183.7 167.9 191.9 169.1 200.5 170.5C209.1 171.7 217.5 173.6 225.7 176.2C233.9 178.8 241.3 182.6 247.9 187.6C254.7 192.6 260 199.2 263.8 207.4C267.8 215.6 269.8 225.9 269.8 238.3C269.8 250.465 267.313 260.92 262.34 269.666C235.539 294.687 199.558 310 160 310C121.684 310 86.7241 295.634 60.2118 271.995Z" fill="white"/>
</svg>
